/* XPM */
static char * Character_xpm[] = {
"64 64 9 1",
" 	c None",
".	c #C3242F",
"+	c #FCFEFE",
"@	c #E7333B",
"#	c #03396B",
"$	c #0FEFFB",
"%	c #0696DB",
"&	c #04193F",
"*	c #000000",
"                                                                ",
"                                                                ",
"                                                                ",
"                                                                ",
"                                                                ",
"                                                                ",
"                                                                ",
"                                                                ",
"                                                                ",
"                                                                ",
"                                                                ",
"                                                                ",
"                          &&&&&&&&&&                            ",
"                          #%%%%#####                            ",
"                      &&&#%$$$$%%%%%#&&&                        ",
"                      #%%%$$$$$$$%%%#&&&                        ",
"                    &#%$$$$$$$$$$$%%####&&                      ",
"                    #%$$$$$$$$$$$$%%#####&                      ",
"                  &#%$$$$$$$$$$$$$%#######&&                    ",
"                  #%$$$$$$$$$$$$$$%&&&#####&                    ",
"                &#%$$$$$$$$$$$$$$$%&&&######&&                  ",
"                &%$$$$$$$$$$$$$$$$%#########&&                  ",
"                &%$$$$$$%%%%%%$$$$%%%%#####&&&                  ",
"                #%$$$$$%###%%%%$$$%%%%%###&##%                  ",
"              &#%$$$$$%###++++%%$$%%%%%%#&&#++%&                ",
"              &%$$$$$$%&&%++++%%$$%%%%%%#&&%++%&                ",
"              &%$$$$$$%&&%++++%%$$%%%%%%#&&%++%&                ",
"              &%$$$$$$%&&#++++#%$$%%%%%%#&&#++#&                ",
"              &%$$$$$$%&&##%%##%$$%%%%%%#&&####&                ",
"              &%$$$$$$%##&&&&##%$$%%%%%%#&&&&&&&                ",
"              &%$$$$$$$%#&&&&#%$%%%%%%%%##&&&&&&                ",
"              &%$$$$$$$$%%%%%%$$%%%%%%%%##&&&&&&                ",
"              &%$$$$$$$$$$$$$$$$%%%%%%%%######&&                ",
"              &#%$$$$$$$$$$$$$$$%%%%%%%%######&&                ",
"                #%$$$$$$$$$$$$$%%%%%%%%######&                  ",
"                &%$$$$$$$$$$$$%%%%%%%%######&&                  ",
"                &%$$$$$$$$$%%%%%%%##########&&                  ",
"                &#%$$$$$$$%%%%%%%%##########&&                  ",
"                  #%%%%%%%%%%%%%%%%%%%#####&                    ",
"                  &#%%%%%%%%%%%%%%%%%%####&&                    ",
"                  &&....%%%%%%%%%%%%%#####&&                    ",
"                  &....@%%%%%%%%%%%%######&&                    ",
"                  &..@@@@.....##########..&&                    ",
"                  &..@@@@......########....&                    ",
"                &&##..@@@@@@@...........@..&                    ",
"                &####....@@@@@.........@@..&                    ",
"                &#%%##....@@@@@@@@@@@@@@@..&                    ",
"                ##%%%####..@@@@@@@@@@@@@@..&                    ",
"              &#%%%%%%%%##..@@@@@@@@@@@@..##&&                  ",
"              &#%%%%%%%%##&....@@@@@@@@..###&&                  ",
"              &#%%%%%%%%####....@@@@@@@..###&&                  ",
"              &#%%%%%%%%%####&&....@@@@..###&&                  ",
"              &#%%%%%%%%%%%%####....@@..####&&                  ",
"              &#%%%%%%%%%%%%%####&&....&####&&                  ",
"                #####%%%%%%%%%%%####..##&&&&                    ",
"                &&###%%%%%%%%%%%########&&&&                    ",
"                  &#%%%%%%%%%%%#########&&                      ",
"                  &#%%%%%%%%%%##########&&                      ",
"                  &#%%%%%%%%###&########&&                      ",
"                  &#%%%%%%%%#&&&########&&                      ",
"                  &#%%%%%%%%#&&&#######&                        ",
"                  &#%%%%%%%%#&&&######&&                        ",
"                  &#%%%%%%##  &&######&&                        ",
"                  &#%%%%%%#&  &&######&&                        "};
