/* XPM */
static char * Pink_Monster_xpm[] = {
"64 64 7 1",
" 	c None",
".	c #D840FB",
"+	c #780BF7",
"@	c #FCFEFE",
"#	c #04193F",
"$	c #F489F6",
"%	c #000000",
"                                                                ",
"                                                                ",
"                                                                ",
"                                                                ",
"                                                                ",
"                                                                ",
"                                                                ",
"                                                                ",
"                    ####          ####                          ",
"                    ++++          ####                          ",
"                  #+.$$.+#      ##++++##                        ",
"                  +.$$$$.+      #+++++##                        ",
"                #+.$$$$$$.+#  ##++++++##                        ",
"                #+$$$$$$$$.+  ##+++++++#                        ",
"                #+$$$$$$$$$.+###++++++++##                      ",
"                #+.$$$$$$$$$.+++++++++++##                      ",
"                  +.$$$$$$$.......++++++##                      ",
"                  #+.$$$$$$........++++++#                      ",
"                  #+.$$$$$$$$$$$......++++##                    ",
"                  ++.$$$$$$$$$$$$......+++##                    ",
"                #+..$$$$$$$$$$$$$$......++##                    ",
"                #+.$$$$$$$$$$$$$$$$$$$$$.++#                    ",
"                #+.$$$$$$$$$@@@@@@@@@@@$.+++##                  ",
"                +.$$$$$$$$$@@@@@@@@@@@@@$.++##                  ",
"              #+..$$$$$$$$@@@@@@@@@@@@@@@$.+##                  ",
"              #+.$$$$$$$$@@@@@@@@@@@@@@@@$.++#                  ",
"              #+.$$$$$$$@@@@$$$$$$@@@@@@$.++++##                ",
"              #+$$$$$$$$@@@$+#+$$$@@@@@$+#+.++##                ",
"              #+$$$$$$$$@@$+#+$@@@$$@@$+#+$$.###                ",
"              #+$$$$$$$$@@$##$@@@@$$@@$##$@@$###                ",
"              #+$$$$$$$$@@$##$@@@@$$@@$##$@@$###                ",
"              #+$$$$$$$$@@$##+$@@$+$@@$##+$$+###                ",
"              #+$$$$$$$$@@$###+$$+#$@@$###++####                ",
"              #+.$$$$$$$@@$+######+$@@$+########                ",
"              #+.$$$$$$$$$@$+####+$@@@@$+###++##                ",
"              #+..$$$$$$$$@@$$$$$$@@@@@@$$$.++##                ",
"                +.$$$$$$$$@@@@@@@@@@@@@@@@@$.#                  ",
"                #+.$$$$$$$@@@@@@@@@@@@@@@@@$+#                  ",
"                #+.$$$$$$$$$$$@@@@@@@@@@@@$.+#                  ",
"                #+..$$$$$$$$$$@@@@@@@@@@@$.+##                  ",
"                  +.$$$$$$$$$$$$$$$$$$$$$.+#                    ",
"                  #+$$$$$$$$$$$$$$$$$.++++##                    ",
"                  #+$$$$$$$$$$$$@@@@@$.++#                      ",
"                  +.$$$$$$$$$$$@@@@@@@$++#                      ",
"                #+.$$$$$$$..$$@@@@@@@@$+++##                    ",
"                #+$$$$$$$$..$$@@@@@@@@$.++##                    ",
"                #+$$$$$$$$..$$@@@@@@@@@$.+##                    ",
"                +.$$$$$$$...$@@@@@@@@@@@$++#                    ",
"              #+.$$$$$$$...$@@@@@@@@@@@@$+++##                  ",
"              #+$$$$$$$$.+.$@@@@@@@@@@@@$+++##                  ",
"              #+$$$$$$$$.+.$@@@@@@@@@@@@$+++##                  ",
"              #+$$$$$$$....$@@@@@@@@@@@@$+++##                  ",
"              #+$$$$$$....$$@@@@@@@@@@@@$+++##                  ",
"              #+.$$$$.....$$@@@@@@@@@@@$.+++##                  ",
"                ++........$$$@@@@@@@@@$.+###                    ",
"                ##+++....$$$$$@@@@@@@$.+####                    ",
"                  #+....$$$$$$$$$$$$$.++##                      ",
"                  #+...$$$$$$$......++++##                      ",
"                  #+.$$$$$$$.+++++++++++##                      ",
"                  #+$$$$$$$$+###++++++++##                      ",
"                  #+$$$$$$$$+###+++++++#                        ",
"                  #+$$$$$$$.+###++++++##                        ",
"                  #+$$$$$$.+  ##++++++##                        ",
"                  #+$$$$$$+#  ##++++++##                        "};
