/* XPM */
static char *b005105cdd934486b5b1924d5bbad95dcFqpFUC1mbB292qL[] = {
/* columns rows colors chars-per-pixel */
"64 64 133 2 ",
"   c None",
".  c #00190C",
"X  c #0A1B0E",
"o  c #141C0F",
"O  c #101C10",
"+  c #1C1A14",
"@  c #161D1A",
"#  c #201D1D",
"$  c #231F24",
"%  c #2B2325",
"&  c #242328",
"*  c #2A2128",
"=  c #352433",
"-  c #3E263B",
";  c #3B333F",
":  c #402633",
">  c #41273F",
",  c #42283F",
"<  c #4F2B3E",
"1  c #3F2444",
"2  c #3D3442",
"3  c #36364A",
"4  c #442843",
"5  c #403748",
"6  c #433949",
"7  c #5E3147",
"8  c #512D54",
"9  c #483E50",
"0  c #5E335E",
"q  c #643E46",
"w  c #613D48",
"e  c #64345D",
"r  c #68365E",
"t  c #683769",
"y  c #6E396C",
"u  c #723963",
"i  c #7E3E62",
"p  c #713A6F",
"a  c #733B71",
"s  c #7B3F79",
"d  c #46424A",
"f  c #4A464E",
"g  c #53475D",
"h  c #58545E",
"j  c #6D4C52",
"k  c #544761",
"l  c #5A4E65",
"z  c #5E516A",
"x  c #61596A",
"c  c #7F407D",
"v  c #645671",
"b  c #6A5B78",
"n  c #7E6175",
"m  c #823F62",
"M  c #8A4263",
"N  c #95476B",
"B  c #8E4276",
"V  c #904677",
"C  c #92477F",
"Z  c #92597D",
"A  c #A65579",
"S  c #756585",
"D  c #7B6A8C",
"F  c #7D7887",
"G  c #7E7988",
"H  c #844282",
"J  c #914784",
"K  c #934987",
"L  c #964A8A",
"P  c #A64F81",
"I  c #A04E8A",
"U  c #A7508B",
"Y  c #AD538D",
"T  c #B55582",
"R  c #BE598C",
"E  c #BA5890",
"W  c #817B8A",
"Q  c #92728E",
"!  c #8A6A93",
"~  c #837196",
"^  c #B8638F",
"/  c #BE6396",
"(  c #C35B8B",
")  c #C65D92",
"_  c #CB5E92",
"`  c #C66293",
"'  c #CD6093",
"]  c #CE6A98",
"[  c #D06595",
"{  c #D36A96",
"}  c #D46E98",
"|  c #D7739A",
" . c #DA779B",
".. c #DC7A9D",
"X. c #918B9C",
"o. c #93929A",
"O. c #A3A1A5",
"+. c #CD8894",
"@. c #D28296",
"#. c #E284A2",
"$. c #E589A4",
"%. c #E98FA6",
"&. c #EA91A7",
"*. c #ED96A9",
"=. c #F095A8",
"-. c #F19BAC",
";. c #DEA7B5",
":. c #F5A1AF",
">. c #E0A7BC",
",. c #E0A8BD",
"<. c #FAA7B2",
"1. c #FEADB5",
"2. c #F0ADBB",
"3. c #FEB3BB",
"4. c #E9BFCD",
"5. c #F6B7C1",
"6. c #F7B8C1",
"7. c #FFBCC2",
"8. c #D5D2D8",
"9. c #FFC4CA",
"0. c #FFC9CD",
"q. c #FFCDD1",
"w. c #EED3DD",
"e. c #FFD2D6",
"r. c #FFD9DC",
"t. c #DDDAE1",
"y. c #FFDFE2",
"u. c #FDE1E5",
"i. c #FFE7E9",
"p. c #FEEBED",
"a. c #FEEEF1",
"s. c #FFF3F4",
"d. c #FFFFFF",
/* pixels */
"                                                                                                                                ",
"                                                                                                                                ",
"                                                                                                                                ",
"                                                                                                                                ",
"                                                                                                                                ",
"                                                                                                                                ",
"                                    X.                                                                                          ",
"                                    X.                                                                                          ",
"                                                                                                                                ",
"                                                                                                                                ",
"                                                                                                                                ",
"                                                                                                                                ",
"                                                                                                                                ",
"                                                                                                                                ",
"                                                                                                                                ",
"                                                                                            d F #                               ",
"                h W                                                                         W X.#                               ",
"                f G                                                                           f                                 ",
"                                                      0 e u M M i 0                                                             ",
"                                                = r K _ _ _ ' ' _ _ ( J                                                         ",
"                                              t U ' ' _ _ ..4.%._ _ ' ' T N                                                     ",
"                                            < _ ' [ | 1.1.u.d.0.3.1.} } ' ) u >                                                 ",
"                                          +.) ' _ :.3.i.i.s.d.a.s.i.1.1...' ' P                                                 ",
"                                        n 1.#.$.1.9.s.d.d.d.d.d.d.d.d.q.7. ._ ' i                                               ",
"                                      = ^  .*.1.u.d.d.d.d.d.d.d.d.d.d.d.s.3...' ) @                                             ",
"                                      r ' [ :.r.d.d.d.d.d.d.d.d.d.d.d.d.d.s.1...' C                                             ",
"                                      R ' | 3.d.d.d.d.d.d.d.d.d.d.d.d.d.d.d.q.:.] / ,                                           ",
"                                    0 _ _ 1.i.d.d.d.d.d.d.d.d.d.d.d.d.d.d.d.d.<.a.u.q                                           ",
"                                    e _ ' 1.p.d.d.d.d.d.d.d.d.d.d.d.d.d.d.d.d.1.3.w.K                                           ",
"                                    M ' &.7.d.d.d.d.d.d.d.d.d.d.d.d.d.d.d.d.d.r.-._ L o y a *                                   ",
"                                    M ' &.7.d.d.d.d.d.d.d.d.d.d.d.d.d.d.d.d.d.s. .' _ . c 0                                     ",
"                                    M ' &.7.d.d.d.d.d.d.d.d.d.d.d.d.d.d.d.d.d.a.:._ U X                                         ",
"                                    i _ &.7.d.d.d.d.d.d.d.d.d.d.d.d.d.d.d.d.d.y. .' L o                                         ",
"                                    m ' { 1.p.d.d.d.d.d.d.d.d.d.d.d.d.d.d.d.d.1. .' L o                                         ",
"                                    8 ) _ *.e.d.d.d.d.d.d.d.d.d.d.d.d.d.d.d.p.:._ ) <                                           ",
"                                      K ' } 1.s.d.d.d.d.d.d.d.d.d.d.d.d.d.d.q.-._ E >                                           ",
"                                      u ' _ -.3.s.d.d.d.d.d.d.d.d.d.d.d.d.s.=._ ' V                                             ",
"                                      Q A ' ' <.7.d.d.d.d.d.d.d.d.d.d.d.s.d.>.' ` 2                                             ",
"                                    3 :.Z Y ' [ p.d.r.d.d.d.d.d.d.d.p.q.2.,.{ ) ! D 2                                           ",
"                                9     %   , Y [ [ ..:.1.3.s.a.a.s.7.<.-._ ' ( a b v                                             ",
"                              # ~ 6         1 5.6.%.'  ...1.1.1.:. .$.-._ ) e                                                   ",
"                                +           g o.;.@.' ' ' _ _ _ _ ' $.1.B $                                                     ",
"                                          2 ~ $ 4 : 7 L ) _ _ _ _ I w j &                                                       ",
"                                          ; v # c H - o . . . . . O l ~ z                                                       ",
"                                                s a                   S                                                         ",
"                                                                                    y p =                                       ",
"                                            2 S                                     s H =                                       ",
"                                            9 ~ 9                                                                               ",
"                                              #                                                                                 ",
"                                                                                                                                ",
"                                                                                            2 k                                 ",
"                                                                                            5 t.8.D +                           ",
"                                                                                            2 O.x z                             ",
"                                                                                                                                ",
"                                                                                                                                ",
"                                                                                                                                ",
"                                                                                                                                ",
"                                                                                                                                ",
"                                                                                                                                ",
"                                                                                                                                ",
"                                                                                                                                ",
"                                                                                                                                ",
"                                                                                                                                ",
"                                                                                                                                "
};
