/* XPM */
static char * tile_1_xpm[] = {
"64 64 459 2",
"  	c None",
". 	c #25131A",
"+ 	c #201A23",
"@ 	c #323222",
"# 	c #48491E",
"$ 	c #51531B",
"% 	c #50531B",
"& 	c #50521B",
"* 	c #323122",
"= 	c #47481E",
"- 	c #211E24",
"; 	c #221E24",
"> 	c #221D23",
", 	c #25121A",
"' 	c #211C23",
") 	c #222C2D",
"! 	c #46512C",
"~ 	c #6B7424",
"{ 	c #79831E",
"] 	c #7A841E",
"^ 	c #6A7424",
"/ 	c #213030",
"( 	c #1E2F31",
"_ 	c #242023",
": 	c #6A6C2E",
"< 	c #6A6C2D",
"[ 	c #5F684B",
"} 	c #4A616A",
"| 	c #60684B",
"1 	c #4B626A",
"2 	c #415B69",
"3 	c #4B5544",
"4 	c #4F5423",
"5 	c #4F5A2B",
"6 	c #5B682F",
"7 	c #6F7C2A",
"8 	c #7D8A25",
"9 	c #869221",
"0 	c #8A961F",
"a 	c #7E8A25",
"b 	c #5B692F",
"c 	c #626F2D",
"d 	c #445332",
"e 	c #2B3F35",
"f 	c #3B4734",
"g 	c #5C6030",
"h 	c #60684A",
"i 	c #4B6168",
"j 	c #4C6268",
"k 	c #616848",
"l 	c #6B6C28",
"m 	c #A3AB44",
"n 	c #A4AB42",
"o 	c #94A574",
"p 	c #719BA4",
"q 	c #94A674",
"r 	c #6190A2",
"s 	c #708769",
"t 	c #798420",
"u 	c #79841E",
"v 	c #5C6A2F",
"w 	c #63702D",
"x 	c #8B971F",
"y 	c #5C692F",
"z 	c #879321",
"A 	c #69762B",
"B 	c #455433",
"C 	c #5C673A",
"D 	c #8F9741",
"E 	c #A4AB45",
"F 	c #BCC44B",
"G 	c #BCC448",
"H 	c #AEC078",
"I 	c #93B7A8",
"J 	c #93B7A9",
"K 	c #AEBF79",
"L 	c #BCC449",
"M 	c #ACBD77",
"N 	c #88AEA6",
"O 	c #76A2A3",
"P 	c #839A69",
"Q 	c #8A9617",
"R 	c #8B971E",
"S 	c #798527",
"T 	c #4D5C31",
"U 	c #4D5B31",
"V 	c #788427",
"W 	c #788527",
"X 	c #4E5C31",
"Y 	c #4E5D31",
"Z 	c #798526",
"` 	c #8A961E",
" .	c #828E29",
"..	c #737E37",
"+.	c #848E42",
"@.	c #AAB34A",
"#.	c #BBC44C",
"$.	c #BCC54E",
"%.	c #BCC44A",
"&.	c #A9BE84",
"*.	c #81B2BD",
"=.	c #79B0C4",
"-.	c #99B9A0",
";.	c #A9BE85",
">.	c #B7C361",
",.	c #AFC07A",
"'.	c #AFBC5C",
").	c #94A86F",
"!.	c #849B6A",
"~.	c #889845",
"{.	c #8B971C",
"].	c #6F7B2A",
"^.	c #919D2E",
"/.	c #9EA841",
"(.	c #ABB44A",
"_.	c #B6BF4D",
":.	c #BCC54B",
"<.	c #AABF84",
"[.	c #82B3BE",
"}.	c #6CAECF",
"|.	c #7AB1C4",
"1.	c #82B3BD",
"2.	c #A9BE83",
"3.	c #B7C35E",
"4.	c #B7C35F",
"5.	c #A2B573",
"6.	c #93A24B",
"7.	c #8A961C",
"8.	c #455532",
"9.	c #7A8626",
"0.	c #798626",
"a.	c #455432",
"b.	c #7E8A24",
"c.	c #859220",
"d.	c #8E9934",
"e.	c #ADB746",
"f.	c #BBC44E",
"g.	c #B7C35D",
"h.	c #A0BB95",
"i.	c #8DB5B0",
"j.	c #80B2BD",
"k.	c #AFC077",
"l.	c #AEC07A",
"m.	c #84ABA5",
"n.	c #879D69",
"o.	c #8A9613",
"p.	c #2F4235",
"q.	c #435333",
"r.	c #707C29",
"s.	c #445333",
"t.	c #7D8924",
"u.	c #78823A",
"v.	c #A8B148",
"w.	c #BBC44D",
"x.	c #A0BB96",
"y.	c #62ABD4",
"z.	c #61ABD5",
"A.	c #7AB0C3",
"B.	c #9BB99E",
"C.	c #AABE82",
"D.	c #9BB99F",
"E.	c #6EA6BA",
"F.	c #819B76",
"G.	c #8A9610",
"H.	c #7A8527",
"I.	c #515B32",
"J.	c #283237",
"K.	c #262F37",
"L.	c #263037",
"M.	c #293337",
"N.	c #879221",
"O.	c #808926",
"P.	c #6D752D",
"Q.	c #4A5234",
"R.	c #273137",
"S.	c #273037",
"T.	c #4A5134",
"U.	c #6D752C",
"V.	c #7C8428",
"W.	c #6C742C",
"X.	c #5F653C",
"Y.	c #919745",
"Z.	c #ACB34A",
"`.	c #B7BF4B",
" +	c #B8C35C",
".+	c #9AB99F",
"++	c #81B2BC",
"@+	c #60ABD5",
"#+	c #6AADCF",
"$+	c #6DA6BB",
"%+	c #819C77",
"&+	c #8A9614",
"*+	c #7B8428",
"=+	c #575834",
"-+	c #362A3A",
";+	c #34253A",
">+	c #35283A",
",+	c #33243A",
"'+	c #565734",
")+	c #7B8528",
"!+	c #696B30",
"~+	c #524D36",
"{+	c #413839",
"]+	c #36293A",
"^+	c #524D37",
"/+	c #5A5635",
"(+	c #514C36",
"_+	c #48413C",
":+	c #65623F",
"<+	c #898B44",
"[+	c #ACB34B",
"}+	c #78B0C4",
"|+	c #69ACD0",
"1+	c #AABE83",
"2+	c #62ACD5",
"3+	c #6BA8C2",
"4+	c #7AA096",
"5+	c #849B67",
"6+	c #88983E",
"7+	c #8B9718",
"8+	c #8B961A",
"9+	c #717730",
"0+	c #58583D",
"a+	c #474042",
"b+	c #463F42",
"c+	c #474142",
"d+	c #433841",
"e+	c #3F2D3D",
"f+	c #595635",
"g+	c #3D243B",
"h+	c #3B203B",
"i+	c #443A40",
"j+	c #42373F",
"k+	c #686B56",
"l+	c #97A777",
"m+	c #AABE85",
"n+	c #9BBA9E",
"o+	c #7AB1C3",
"p+	c #65AACE",
"q+	c #6BA7C1",
"r+	c #849A67",
"s+	c #565C48",
"t+	c #555F4E",
"u+	c #565F4E",
"v+	c #4F5349",
"w+	c #443B40",
"x+	c #595535",
"y+	c #3C213B",
"z+	c #453B40",
"A+	c #505449",
"B+	c #555E4E",
"C+	c #545D4E",
"D+	c #4E5147",
"E+	c #423840",
"F+	c #546371",
"G+	c #739CA7",
"H+	c #61ABD4",
"I+	c #6BADCE",
"J+	c #5FA1D2",
"K+	c #5FA1D3",
"L+	c #699DBF",
"M+	c #789593",
"N+	c #7F8E64",
"O+	c #7D8742",
"P+	c #58583C",
"Q+	c #4D4E47",
"R+	c #56614F",
"S+	c #5C6B53",
"T+	c #6F742E",
"U+	c #534C37",
"V+	c #3F2C3D",
"W+	c #433941",
"X+	c #57624F",
"Y+	c #57614D",
"Z+	c #4C6072",
"`+	c #5586A6",
" @	c #5C99C1",
".@	c #5E9FCD",
"+@	c #5B8DCE",
"@@	c #5A8DCF",
"#@	c #5E8CC9",
"$@	c #6588BB",
"%@	c #647C9E",
"&@	c #5E6569",
"*@	c #555B46",
"=@	c #5A6852",
"-@	c #5C6C53",
";@	c #45353A",
">@	c #4F5449",
",@	c #5B6952",
"'@	c #5B6851",
")@	c #525F5C",
"!@	c #4B6074",
"~@	c #4C6E99",
"{@	c #5583BE",
"]@	c #598CCF",
"^@	c #598DD0",
"/@	c #5A8DCE",
"(@	c #5B8ECF",
"_@	c #547CB7",
":@	c #46527A",
"<@	c #555E4A",
"[@	c #545E4E",
"}@	c #534D37",
"|@	c #6F732D",
"1@	c #547CB6",
"2@	c #60A2D3",
"3@	c #578DBA",
"4@	c #475B7C",
"5@	c #555D4B",
"6@	c #524C37",
"7@	c #555D4A",
"8@	c #463F3F",
"9@	c #485A7A",
"0@	c #588DB9",
"a@	c #60A1D2",
"b@	c #5B99C1",
"c@	c #5383A6",
"d@	c #46556F",
"e@	c #464042",
"f@	c #555E4B",
"g@	c #443940",
"h@	c #402E3D",
"i@	c #485C7C",
"j@	c #5784BE",
"k@	c #4E6F98",
"l@	c #465670",
"m@	c #403B51",
"n@	c #555E4D",
"o@	c #4F5249",
"p@	c #5880CC",
"q@	c #5880CD",
"r@	c #5881CD",
"s@	c #5474B5",
"t@	c #4C577B",
"u@	c #4B4A45",
"v@	c #52584B",
"w@	c #51584B",
"x@	c #454B79",
"y@	c #5270B4",
"z@	c #587FCC",
"A@	c #5778B5",
"B@	c #56677E",
"C@	c #5D6C53",
"D@	c #454A78",
"E@	c #587EC8",
"F@	c #5879BF",
"G@	c #5777BB",
"H@	c #587AC0",
"I@	c #587FC7",
"J@	c #597CBC",
"K@	c #5A77A4",
"L@	c #5B6F77",
"M@	c #5C6B51",
"N@	c #576CA6",
"O@	c #576496",
"P@	c #576495",
"Q@	c #576DA7",
"R@	c #5A759A",
"S@	c #5B7078",
"T@	c #5C6D60",
"U@	c #56618F",
"V@	c #565B82",
"W@	c #56577A",
"X@	c #56587B",
"Y@	c #566597",
"Z@	c #5777BC",
"`@	c #597BB7",
" #	c #5B7183",
".#	c #5C6B50",
"+#	c #3D253B",
"@#	c #3D233B",
"##	c #5777BA",
"$#	c #56618E",
"%#	c #5770AC",
"&#	c #587EC9",
"*#	c #5770AD",
"=#	c #565779",
"-#	c #566496",
";#	c #597BB6",
">#	c #5B7182",
",#	c #3C223A",
"'#	c #565B81",
")#	c #56587A",
"!#	c #566190",
"~#	c #5974A8",
"{#	c #5B6F7B",
"]#	c #4F5346",
"^#	c #5271B5",
"/#	c #565B83",
"(#	c #586688",
"_#	c #5B696A",
":#	c #5C6B52",
"<#	c #44393D",
"[#	c #5271B4",
"}#	c #565A71",
"|#	c #555D5C",
"1#	c #555F4D",
"2#	c #3C243B",
"3#	c #3F293F",
"4#	c #42334C",
"5#	c #4A4E79",
"6#	c #536BA8",
"7#	c #52526F",
"8#	c #4B4755",
"9#	c #464041",
"0#	c #42324C",
"a#	c #4C4664",
"b#	c #525479",
"c#	c #555F8D",
"d#	c #5877BC",
"e#	c #576290",
"f#	c #504E6F",
"g#	c #453751",
"h#	c #3D243A",
"i#	c #3F273B",
"j#	c #422A3C",
"k#	c #432C3C",
"l#	c #3E273B",
"m#	c #453852",
"n#	c #5770AE",
"o#	c #443650",
"p#	c #49323E",
"q#	c #4D363F",
"r#	c #41293C",
"s#	c #3C233B",
"t#	c #3C233A",
"u#	c #514F6F",
"v#	c #5878BC",
"w#	c #453750",
"x#	c #523B40",
"y#	c #4F383F",
"z#	c #47303D",
"A#	c #513A40",
"B#	c #555679",
"C#	c #525172",
"D#	c #43334C",
"E#	c #525171",
"F#	c #4A425E",
"G#	c #43344D",
"H#	c #3F2A41",
"I#	c #555678",
"J#	c #56587C",
"K#	c #4A425F",
"L#	c #3F2940",
"M#	c #443751",
"N#	c #3C243A",
"O#	c #525273",
"P#	c #412A3B",
"Q#	c #3C2339",
"R#	c #56597C",
"S#	c #3E263B",
"T#	c #3F2B42",
"U#	c #43334D",
"V#	c #453853",
"W#	c #4A435F",
"X#	c #525173",
"Y#	c #49323D",
"Z#	c #4D363E",
"                            . . . . . . . . . . . . . . . . . . . . . . . . . . . . . . . . . . . .                             ",
"                            + @ # $ % & & & & & & % $ # @ * = & & & & & & % $ # @ * = & & = * - ; >                             ",
". . . . . . . . . . . , . ' ) ! ~ { ] { { { { { { ] { ^ ! ! ^ { ] { { { { ] { ^ ! ! ^ ] ] ~ ! / ( ) _ . , . . . . . . . . . . . ",
": < : [ } } [ < < | 1 2 3 4 5 6 7 8 9 0 0 0 0 0 0 9 a 7 b c 8 0 0 0 0 0 0 9 a 7 b c 8 0 0 a c d e f g < : [ } } [ < < h i j k l ",
"m n m o p p o n n q p r s t u 7 v w a x x x x x x a w y 7 a z x x x x x x a w y 7 a z x x z a A B C D n E o p p o n n o p p o m ",
"F G F H I J K F L M N O P 0 Q 8 c b 7 a z x x R x S T U V 0 x 0 0 0 0 x 0 W X Y Z 0 x 0 0 ` 0  ...+.@.#.$.K J J K %.L &.*.=.-.;.",
"$.$.$.>.,.,.>.$.$.'.).!.~.x {.9 8 ].6 c 8 0 0 x 0 V U T S 0 x 0 0 0 0 x 0 V U T S 0 x 0 0 ` 0 ^./.(._.$.$.>.,.,.>.:.$.<.[.}.|.1.",
"2.&.2.H 3.%.%.4.H 5.6.0 7.0 0 x 0 S X 8.A Z 9.0.Z 7 y c 8 0 0 0 0 0 0 x 0 Z Y a.A b.z R R c.b.d.e.$.$.f.f.f.f.#.#.g.H h.i.*.*.*.",
"*.j.*.I k.L F l.J m.n.Q o.0 0 x 0 Z T p.q.X Y T X b r.a 9 0 0 0 0 0 0 x 0 Z X p.s.c a 0 0 t.c u.v.$.$.f.f.w.#.L w.K J i.x.&.&.;.",
"y.z.y.A.B.C.C.D.A.E.F.Q G.0 0 x 0 H.I.J.K.J.J.L.M.I.H.0 x 0 0 0 0 0 0 N.O.P.Q.R.S.T.U.V.V.W.T.X.Y.Z.`.F F %.F  +H .+A.++2.F G F ",
"@+@+@+#+A.++++=.#+$+%+0 &+0 0 x 0 *+=+-+;+>+>+,+>+'+)+0 x 0 0 0 0 0 0 O.!+~+{+]+>+{+^+/+/+(+{+_+:+<+[+f.$.#.f.H J }+|+*.1+F G F ",
"y.y.y.y.y.y.y.2+y.3+4+5+6+7+8+N.O.9+0+a+b+c+a+d+e+f+V.0 R 0 0 0 0 R 0 V./+g+h+e+i+a+c+a+a+c+a+j+e+k+l+m+<.C.1+n+o+z.z.o+n+1+C.1+",
"y.y.y.y.z.@+@+z.y.p+q+O r+0 Q O.!+0+s+t+t+u+t+v+w+f+*+0 x 0 0 0 0 x 0 *+x+y+h+z+A+B+B+C+C+B+B+D+E+F+G+*.1.++*.A.#+@+H+I+A.*.++*.",
"J+J+J+J+J+J+J+J+J+K+J+L+M+N+O+9+P+Q+R+S+S+S+S+R+Q+0+9+O.z x R R x z O.T+U+V+W+Q+X+S+S+S+S+S+S+Y+Q+Z+`+ @.@J+J+J+J+J+J+J+J+J+J+J+",
"+@+@+@+@+@+@+@+@+@@@@@#@$@%@&@0+*@R+=@S+-@-@S+=@X+s+0+!+O.0 0 0 0 O.!+U+;@i+>@X+,@S+-@S+S+-@S+'@X+)@!@~@{@]@^@@@/@+@+@/@@@]@]@]@",
"+@+@+@+@+@+@+@+@+@+@+@(@(@_@:@a+<@S+S+S+S+S+S+S+S+[@a+}@|@*+V.V.*+T+}@e+W+Q+X+S+S+S+S+S+S+S+S+S+S+<@a+:@1@+@(@+@+@+@+@+@+@+@+@+@",
"J+J+J+J+J+J+J+J+J+J+J+2@K+3@4@b+5@S+-@S+S+S+S+-@S+B+b+;@6@f+/+/+f+U+;@W+v+X+,@S+S+S+S+S+S+S+S+-@S+7@8@9@0@J+2@J+J+J+J+J+J+J+J+J+",
"a@a@a@a@a@a@a@a@a@a@a@.@b@c@d@e@f@S+-@S+S+S+S+-@S+t+e@e+g@a+c+c+a+i+h@a+t+S+S+S+S+S+S+S+S+S+S+S+S+7@a+i@0@a@2@a@a@a@a@a@a@a@a@a@",
"+@+@+@+@+@+@+@+@+@(@+@j@k@l@m@a+n@S+S+S+S+S+S+S+S+n@a+i+o@C+[@[@C+o@i+c+t+S+-@S+S+S+S+S+S+S+S+S+S+<@a+:@1@+@(@+@+@+@+@+@+@+@+@+@",
"p@p@p@q@q@q@q@p@p@r@q@s@t@e@8@u@v@X+,@S+-@-@S+,@X+w@u@Q+X+S+S+S+S+n@a+a+n@S+S+S+S+S+S+S+S+S+S+S+S+f@a+x@y@p@r@p@p@p@p@p@p@p@p@p@",
"z@z@z@z@z@z@z@z@z@q@z@A@B@f@<@w@u@Q+X+S+S+S+S+X+Q+u@w@X+,@S+-@C@S+t+c+a+n@S+S+S+S+S+S+S+S+S+S+S+S+f@a+D@y@z@q@z@z@z@z@z@z@z@z@z@",
"p@E@F@G@G@G@G@H@E@I@J@K@L@S+M@n@a+w+v+t+t+t+t+v+w+a+n@S+S+S+S+-@S+t+c+a+n@S+S+S+S+S+S+S+S+S+S+S+S+f@a+x@y@p@r@E@H@H@E@p@p@p@p@p@",
"p@H@N@O@P@P@O@Q@H@J@R@S@T@C@S+t+e@e+g@a+c+c+a+g@e+e@t+S+-@S+S+S+S+n@a+a+n@S+S+S+S+S+S+S+S+S+S+S+S+f@a+x@y@p@r@F@N@N@F@p@p@p@p@p@",
"p@H@N@U@V@W@X@Y@Z@`@ #S+.#-@S+t+c++#@#+#+#+#+#@#+#c+t+S+C@-@S+,@X+v+i+c+t+S+-@S+S+S+S+S+S+S+S+-@S+f@c+x@y@q@r@##P@$#%#H@&#p@p@p@",
"p@E@F@*#$#=#=#-#G@;#>#M@.#S+S+t+a++#,#@#@#@#@#,#+#a+t+S+S+S+S+X+Q+i+e+a+t+S+S+S+S+S+S+S+S+S+S+S+S+f@a+x@y@q@r@G@P@'#$#N@H@p@p@p@",
"q@r@q@Z@O@)#W@!#*#~#{#-@M@,@X+A+i++#g++#+#+#+#g++#w+A+t+t+t+t+A+w+g+g+i+A+X+,@S+-@S+S+S+S+-@S+,@X+]#i+x@^#q@r@H@N@U@V@U@*#H@&#q@",
"p@q@p@Z@O@X@W@/#U@(#_#S+:#X+Q+w+e++#+#+#+#+#+#+#+#h@w+a+c+c+a+i+e+@#g+e+w+Q+X+S+S+S+S+S+S+S+S+X+Q+<#e+x@[#p@r@E@H@*#$#'#$#N@H@p@",
"G@Z@G@*#$#W@=#)#X@}#|#t+1#A+w++#g++#+#+#+#+#+#+#+#+#+#+#+#+#+#+#+#+#+#2#+#w+A+t+t+t+t+t+t+t+t+A+w+3#4#5#6#H@&#r@q@Z@O@)#W@U@*#G@",
"O@O@O@U@/#X@X@X@)#7#8#c+9#i+e+g+g++#+#+#+#+#+#+#+#+#g+@#@#@#@#g++#+#+#g+g+e+i+a+c+a+a+a+a+c+a+i+e+0#a#b#c#N@H@q@q@d#O@)#=#V@U@O@",
"X@/#U@O@O@O@O@e#/#f#g#+#h#+#+#+#+#+#+#+#+#+#+#+#+#+#+#+#+#+#+#+#+#i#j#k#k#j#l#+#+#+#+#+#+#+#+#h#+#m#f#)#X@U@*#Z@Z@*#U@X@)#X@X@X@",
"W@$#*#G@Z@Z@G@n#U@f#o#@#,#g++#+#+#+#+#+#+#+#+#+#+#+#+#+#+#+#+#+#+#j#p#q#q#p#r#@#s#@#@#@#@#@#@#t#+#m#u#X@X@V@U@O@O@U@/#X@X@X@)#W@",
"X@O@Z@q@r@r@q@v#O@f#w#+#h#+#+#+#+#+#+#+#+#+#+#+#+#+#+#+#+#+#+#+#+#k#q#x#x#y#z#j#l#+#+#+#+#+#+#h#+#m#f#X@X@X@X@X@X@X@X@X@X@X@X@X@",
"X@O@Z@q@r@r@q@v#O@f#w#+#h#+#+#+#+#+#+#+#+#+#+#+#+#+#+#+#+#+#+#+#+#k#q#x#x#A#y#p#j#+#+#+#+#+#+#h#+#m#f#X@X@X@)#W@W@)#X@X@X@X@X@X@",
"X@U@*#G@Z@Z@G@n#e#u#w#+#h#i#j#k#k#k#k#k#k#j#l#+#+#+#+#+#+#+#+#+#+#j#p#y#A#x#x#q#k#+#+#+#+#+#+#h#+#m#f#X@X@X@X@X@X@X@X@X@X@X@X@X@",
"X@/#U@O@O@O@O@e#/#f#g#+#h#j#p#q#q#q#q#q#q#p#j#+#+#+#+#+#+#+#+#+#+#l#j#z#y#x#x#q#k#+#+#+#+#+#+#h#+#m#f#X@X@X@X@X@X@X@X@X@X@X@X@X@",
"X@X@X@X@X@X@X@B#C#a#D#+#h#k#q#x#x#x#x#x#x#y#z#j#l#+#+#+#+#+#+#+#+#+#+#j#p#q#q#p#j#+#+#+#+#+#+#h#+#m#f#X@X@X@X@X@X@X@X@X@X@X@X@X@",
"X@X@)#W@W@)#W@E#F#G#H#+#+#k#q#x#x#x#x#x#x#A#y#p#j#+#+#+#+#+#+#+#+#+#+#l#j#k#k#j#i#+#+#+#+#+#+#h#+#m#f#X@X@X@X@X@X@X@X@X@X@X@X@X@",
"X@X@X@X@X@I#C#a#D#+#h#+#+#k#q#x#x#x#x#x#x#x#x#q#k#+#+#+#+#+#+#+#+#+#+#+#+#+#+#+#+#+#+#+#+#+#+#h#+#m#u#X@J#X@X@X@X@X@X@X@X@X@X@X@",
"X@X@X@X@X@C#K#D#L#h#h#+#+#k#q#x#x#x#x#x#x#x#x#q#k#+#+#+#+#+#+#+#+#+#+#+#+#+#+#+#+#+#+#+#+#+#+#h#+#m#f#X@X@X@X@X@X@X@X@X@X@X@X@X@",
"X@X@X@X@X@f#m#+#h#+#+#+#+#k#q#x#x#x#x#x#x#x#x#q#k#+#+#+#+#+#+#+#+#+#+#+#+#+#+#+#+#+#+#+#+#+#+#h#+#D#a#C#I#X@X@X@X@X@X@X@X@X@X@X@",
"X@X@X@X@X@f#M#h#h#+#+#+#+#k#q#x#x#x#x#x#x#x#x#q#k#+#+#+#+#+#+#+#+#+#+#+#+#+#+#+#+#+#+#+#+#+#+#+#+#H#G#K#C#X@X@X@X@X@X@X@X@X@X@X@",
"X@X@X@X@X@f#m#+#h#+#+#+#+#k#q#x#x#x#x#x#x#A#y#p#j#+#+#+#+#+#+#+#+#+#+#+#+#+#+#+#+#+#+#+#+#+#+#+#+#N#+#m#u#I#O#f#f#C#I#X@X@X@X@X@",
"X@X@X@X@X@f#m#+#h#+#+#+#+#k#q#x#x#x#x#x#x#y#z#j#l#+#+#+#+#+#+#+#+#+#+#+#+#+#+#+#+#+#+#+#+#+#+#+#+#h#h#m#f#C#K#M#M#K#C#X@X@X@X@X@",
"X@X@X@J#X@u#m#+#h#+#+#+#+#k#q#x#x#x#x#A#y#p#j#+#+#+#+#+#+#+#+#+#+#+#+#+#+#+#+#+#+#+#+#l#j#k#k#k#k#P#l#G#a#a#G#Q#Q#M#f#X@R#X@X@X@",
"X@X@X@X@X@f#m#+#h#+#+#+#+#k#q#x#x#x#x#y#z#j#S#+#+#+#+#+#+#+#+#+#+#+#+#+#+#+#+#+#+#+#+#j#p#q#q#q#q#p#j#T#U#D#H#Q#h#M#f#X@X@X@X@X@",
"X@J#X@B#C#a#D#+#h#+#+#+#+#j#p#q#q#q#q#p#j#+#+#+#+#+#+#+#+#+#+#+#+#+#+#+#+#+#+#+#+#l#j#z#y#x#x#x#x#y#z#j#l#T#G#m#V#W#X#I#X#f#f#f#",
"X@X@X@C#K#G#H#+#+#+#+#+#+#i#j#k#k#k#k#j#l#+#+#+#+#+#+#+#+#+#+#+#+#+#+#+#+#+#+#+#+#j#p#y#A#x#x#x#x#A#y#Y#P#4#a#f#u#C#I#C#K#m#M#m#",
"f#u#f#a#G#+#h#+#+#+#+#+#+#+#+#+#+#+#+#+#+#+#+#+#+#+#+#+#+#+#+#+#+#+#+#+#+#+#+#+#+#k#q#x#x#x#x#x#x#x#x#Z#k#G#a#f#u#u#f#a#G#+#h#+#",
"m#m#m#D#H#h#h#+#+#+#+#+#+#+#+#+#+#+#+#+#+#+#+#+#+#+#+#+#+#+#+#+#+#+#+#+#+#+#+#+#+#k#q#x#x#x#x#x#x#x#x#Z#k#T#G#V#V#V#m#D#H#h#h#h#",
"+#+#+#+#+#+#+#+#+#+#+#+#+#+#+#+#+#+#+#+#+#+#+#+#+#+#+#+#+#+#+#+#+#+#+#+#+#+#+#+#+#k#q#x#x#x#x#x#x#x#x#q#k#+#+#+#+#+#+#+#+#+#+#+#",
"h#h#h#h#+#+#+#+#+#+#+#+#+#+#+#+#+#+#+#+#+#+#+#+#+#+#+#+#+#+#+#+#+#+#+#+#+#+#+#+#+#k#q#x#x#x#x#x#x#x#x#q#k#+#N#h#h#h#h#h#+#+#+#+#",
"+#+#+#+#+#+#+#+#+#+#+#+#+#+#+#+#+#+#+#+#+#+#+#+#+#+#+#+#+#+#+#+#+#+#+#+#+#+#+#+#+#j#p#y#A#x#x#x#x#A#y#p#j#+#+#+#+#+#+#+#+#+#+#+#",
"+#+#+#+#+#+#+#+#+#+#+#+#+#+#+#+#+#+#+#+#+#+#+#+#+#+#+#+#+#+#+#+#+#+#+#+#+#+#+#+#+#l#j#z#y#x#x#x#x#y#z#j#l#+#+#+#+#+#+#+#+#+#+#+#",
"+#+#+#+#+#+#+#+#+#+#+#+#+#+#+#+#+#+#+#+#+#+#+#+#+#i#j#k#k#j#i#+#+#+#+#+#+#+#+#+#+#+#+#j#p#q#q#q#q#p#j#+#+#+#+#+#+#+#+#+#+#+#+#+#",
"+#+#+#+#+#+#+#+#+#+#+#+#+#+#+#+#+#+#+#+#+#+#+#+#+#j#p#q#q#p#j#+#+#+#+#+#+#+#+#+#+#+#+#l#j#k#k#k#k#j#l#+#+#+#+#+#+#+#+#+#+#+#+#+#",
"k#j#l#+#+#+#+#+#+#+#+#+#+#+#+#+#+#+#+#+#+#+#+#+#+#k#q#x#x#q#k#+#+#+#+#+#+#+#+#+#+#+#+#+#+#+#+#+#+#+#+#+#+#+#+#+#+#+#+#+#+#l#j#k#",
"q#p#j#+#+#+#+#+#+#+#+#+#+#+#+#+#+#+#+#+#+#+#+#+#+#k#q#x#x#q#k#+#+#+#+#+#+#+#+#+#+#+#+#+#+#+#+#+#+#+#+#+#+#+#+#+#+#+#+#+#+#j#p#q#",
"x#y#z#j#S#+#+#+#+#+#+#+#+#+#+#+#+#+#+#+#+#+#+#+#+#j#p#q#q#p#j#+#+#+#+#+#+#+#+#+#+#+#+#+#+#+#+#+#+#+#+#+#+#+#+#+#+#+#+#l#j#z#y#x#",
"x#A#y#p#j#+#+#+#+#+#+#+#+#+#+#+#+#+#+#+#+#+#+#+#+#i#j#k#k#j#i#+#+#+#+#+#+#+#+#+#+#+#+#+#+#+#+#+#+#+#+#+#+#+#+#+#+#+#+#j#p#y#A#x#",
"x#x#x#y#z#j#l#+#+#+#+#+#+#+#+#+#+#+#+#+#+#+#+#+#+#+#+#+#+#+#+#+#+#+#+#+#+#+#+#+#+#+#+#+#+#+#+#+#+#+#+#+#+#+#+#+#+#+#+#k#q#x#x#x#",
"x#x#x#A#y#p#j#+#+#+#+#+#+#+#+#+#+#+#+#+#+#+#+#+#+#+#+#+#+#+#+#+#+#+#+#+#+#+#+#+#+#+#+#+#+#+#+#+#+#+#+#+#+#+#+#+#+#+#+#k#q#x#x#x#",
"x#x#x#x#x#q#k#+#+#+#+#+#+#+#+#+#+#+#+#+#+#+#+#+#+#+#+#+#+#+#+#+#+#+#+#+#+#+#+#+#+#+#+#+#+#+#+#+#+#+#+#+#+#+#+#+#+#+#+#k#q#x#x#x#",
"x#x#x#x#x#q#k#+#+#+#+#+#+#+#+#+#+#+#+#+#+#+#+#+#+#+#+#+#+#+#+#+#+#+#+#+#+#+#+#+#+#+#+#+#+#+#+#+#+#+#+#+#+#+#+#+#+#+#+#k#q#x#x#x#",
"x#x#x#x#x#q#k#+#+#+#+#+#+#+#+#+#+#+#+#+#+#+#+#+#+#+#+#+#+#+#+#+#+#+#+#+#+#+#+#+#+#+#+#+#+#+#+#+#+#+#+#+#+#+#+#+#+#+#+#k#q#x#x#x#"};
