/* XPM */
static char * Tile_12_xpm[] = {
"64 64 12 1",
" 	c #523B40",
".	c #4D363F",
"+	c #432C3C",
"@	c #3D253B",
"#	c #513A40",
"$	c #4F383F",
"%	c #49323E",
"&	c #422A3C",
"*	c #3E273B",
"=	c #47303D",
"-	c #3E263B",
";	c #3F273B",
"     .+@@@@@@@@@@@@@@@@@@@@@@@@@@@@@@@@@@@@@@@@@@@@@@@@@@@@+.   ",
"     .+@@@@@@@@@@@@@@@@@@@@@@@@@@@@@@@@@@@@@@@@@@@@@@@@@@@@+.   ",
"     .+@@@@@@@@@@@@@@@@@@@@@@@@@@@@@@@@@@@@@@@@@@@@@@@@@@@@+.   ",
"   #$%&@@@@@@@@@@@@@@@@@@@@@@@@@@@@*&++++&*@@@@@@@@@@@@@@@@&%$# ",
"   $=&*@@@@@@@@@@@@@@@@@@@@@@@@@@@@&%....%&@@@@@@@@@@@@@@@@*&=$ ",
"...%&@@@@@@@@@@@@@@@@@@@@@@@@@@@@*&=$    $=&*@@@@@@@@@@@@@@@@&%.",
"+++&*@@@@@@@@@@@@@@@@@@@@@@@@@@@@&%$#    #$%&@@@@@@@@@@@@@@@@*&+",
"@@@@@@@@@@@@@@@@@@@@@@@@@@@@@@@@@+.        .+@@@@@@@@@@@@@@@@@@@",
"@@@@@@@@@@@@@@@@@@@@@@@@@@@@@@@@@+.        .+@@@@@@@@@@@@@@@@@@@",
"@@@@@@@@@@@*&++++&*@@@@@@@@@@@@@@+.        .+@@@@@@@@@@@@@@@@@@@",
"@@@@@@@@@@@&%....%&@@@@@@@@@@@@@@+.        .+@@@@@@@@@@@@@@@@@@@",
"@@@@@@@@@-&=$    $=&*@@@@@@@@@@@@+.        .+@@@@@@@@@@@@@@@@@@@",
"@@@@@@@@@&%$#    #$%&@@@@@@@@@@@@+.        .+@@@@@@@@@@@@@@@@@@@",
"@@@@@@@*&=$        .+@@@@@@@@@@@@&%$#    #$%&@@@@@@@@@@@@@@@@@@@",
"@@@@@@@&%$#        .+@@@@@@@@@@@@*&=$    $=&*@@@@@@@@@@@@@@@@@@@",
"@@@@@@@+.          .+@@@@@@@@@@@@@@&%....%&@@@@@@@@@@@@@@@@@@@@@",
"@@@@@@@+.          .+@@@@@@@@@@@@@@*&++++&*@@@@@@@@@@@@@@@@@@@@@",
"@@@@@@@+.        #$%&@@@@@@@@@@@@@@@@@@@@@@@@@@@@@@@@@@@@@@@@@@@",
"@@@@@@@+.        $=&*@@@@@@@@@@@@@@@@@@@@@@@@@@@@@@@@@@@@@@@@@@@",
"@@@@@@@&%$#    #$%&@@@@@@@@@@@@@@@@@@@@@@@@@@@@@@@@@@*&++&;@@@@@",
"@@@@@@@*&=$    $=&-@@@@@@@@@@@@@@@@@@@@@@@@@@@@@@@@@@&%..%&@@@@@",
"@@@@@@@@@&%....%&@@@@@@@@@@@@@@@@@@@@@@@@@@@@@@@@@@*&=$  .+@@@@@",
"@@@@@@@@@*&++++&*@@@@@@@@@@@@@@@@@@@@@@@@@@@@@@@@@@&%$#  .+@@@@@",
"@@@@@@@@@@@@@@@@@@@@@@@@@@@@@@@@@@@@@@@@@@@@@@@@@@@+.  #$%&@@@@@",
"@@@@@@@@@@@@@@@@@@@@@@@@@@@@@@@@@@@@@@@@@@@@@@@@@@@+.  $=&*@@@@@",
"@@@@@@@@@@@@@@@@@@@@@@@@@@@@@@@@@@@@@@@@@@@@@@@@@@@&%..%&@@@@@@@",
"@@@@@@@@@@@@@@@@@@@@@@@@@@@@@@@@@@@@@@@@@@@@@@@@@@@;&++&*@@@@@@@",
"@@@@@@@@@@@@@@@@@@@@@@@@@@@@@@@@@@@@@@@@@@@@@@@@@@@@@@@@@@@@@@@@",
"@@@@@@@@@@@@@@@@@@@@@@@@@@@@@@@@@@@@@@@@@@@@@@@@@@@@@@@@@@@@@@@@",
"@@@@@@@@@@@@@@@@@@@@@@@@@@@@@@@@@;&++&*@@@@@@@@@@@@@@@@@@@@@@@@@",
"@@@@@@@@@@@@@@@@@@@@@@@@@@@@@@@@@&%..%&@@@@@@@@@@@@@@@@@@@@@@@@@",
"@@@@@@@@@@@@@@@@@@@@@@@@@@@@@@@@@+.  $=&*@@@@@@@@@@@@@@@@@@@@@@@",
"@@@@@@@@@@@@@@@@@@@@@@@@@@@@@@@@@+.  #$%&@@@@@@@@@@@@@@@@@@@@@@@",
"@@@@@@@@@@@*&++++++++&*@@@@@@@@@@&%$#  .+@@@@@@@@@@@@@@@@@@@@@@@",
"@@@@@@@@@@@&%........%&@@@@@@@@@@*&=$  .+@@@@@@@@@@@@@@@@@@@@@@@",
"@@@@@@@@@*&=$        $=&*@@@@@@@@@@&%..%&@@@@@@@@@@@@@@@@@@@@@@@",
"@@@@@@@@@&%$#        #$%&@@@@@@@@@@*&++&;@@@@@@@@@@@@@@@@@@@@@@@",
"+&;@@@@@@+.            .+@@@@@@@@@@@@@@@@@@@@@@@@@@@@@@@@@@@@;&+",
".%&@@@@@@+.            .+@@@@@@@@@@@@@@@@@@@@@@@@@@@@@@@@@@@@&%.",
" .+@@@@@@+.            .+@@@@@@@@@@@@@@@@@@@@@@@@@@@@@@@@@@@@+. ",
" .+@@@@@@+.            .+@@@@@@@@@@@@@@@@@@@@@@@@@@@@@@@@@@@@+. ",
".%&@@@@@@+.          #$%&@@@@@@@@@@@@@@@@@@@@@@@@@@@@@@@@@@@@&%.",
"+&;@@@@@@+.          $=&*@@@@@@@@@@@@@@@@@@@@@@@@@@@@@@@@@@@@;&+",
"@@@@@@@@@&%$#      #$%&@@@@@@@@@@@@@@@@@@@@*&++++++&*@@@@@@@@@@@",
"@@@@@@@@@*&=$      $=&-@@@@@@@@@@@@@@@@@@@@&%......%&@@@@@@@@@@@",
"@@@@@@@@@@@&%......%&@@@@@@@@@@@@@@@@@@@@*&=$      $=&*@@@@@@@@@",
"@@@@@@@@@@@*&++++++&*@@@@@@@@@@@@@@@@@@@@&%$#      #$%&@@@@@@@@@",
"@@@@@@@@@@@@@@@@@@@@@@@@@@@@@@@@@@@@@@@@@+.          .+@@@@@@@@@",
"@@@@@@@@@@@@@@@@@@@@@@@@@@@@@@@@@@@@@@@@@+.          .+@@@@@@@@@",
"@@@@@@@@@@@@@@@@@@@@@@@@@@@@@@@@@@@@@@@@@+.          .+@@@@@@@@@",
"@@@@@@@@@@@@@@@@@@@@@@@@@@@@@@@@@@@@@@@@@+.          .+@@@@@@@@@",
"@@@@@@@@@@@@@@@@@@@@@@@@@@@@@@@@@@@@@@@@@&%$#      #$%&@@@@@@@@@",
"@@@@@@@@@@@@@@@@@@@@@@@@@@@@@@@@@@@@@@@@@*&=$      $=&*@@@@@@@@@",
"@@@@@@@@@@@@@@@@@@@@@@@@@;&++&;@@@@@@@@@@@@&%......%&@@@@@@@@@@@",
"@@@@@@@@@@@@@@@@@@@@@@@@@&%..%&@@@@@@@@@@@@*&++++++&*@@@@@@@@@@@",
"+&*@@@@@@@@@@@@@@@@@@@@@@+.  .+@@@@@@@@@@@@@@@@@@@@@@@@@@@@@@*&+",
".%&@@@@@@@@@@@@@@@@@@@@@@+.  .+@@@@@@@@@@@@@@@@@@@@@@@@@@@@@@&%.",
" $=&-@@@@@@@@@@@@@@@@@@@@&%..%&@@@@@@@@@@@@@@@@@@@@@@@@@@@@*&=$ ",
" #$%&@@@@@@@@@@@@@@@@@@@@;&++&;@@@@@@@@@@@@@@@@@@@@@@@@@@@@&%$# ",
"   $=&*@@@@@@@@@@@@@@@@@@@@@@@@@@@@@@@@@@@@@@@@@@@@@@@@@@@@+.   ",
"   #$%&@@@@@@@@@@@@@@@@@@@@@@@@@@@@@@@@@@@@@@@@@@@@@@@@@@@@+.   ",
"     .+@@@@@@@@@@@@@@@@@@@@@@@@@@@@@@@@@@@@@@@@@@@@@@@@@@@@+.   ",
"     .+@@@@@@@@@@@@@@@@@@@@@@@@@@@@@@@@@@@@@@@@@@@@@@@@@@@@+.   ",
"     .+@@@@@@@@@@@@@@@@@@@@@@@@@@@@@@@@@@@@@@@@@@@@@@@@@@@@+.   "};
